<svg width="19" height="19" viewBox="0 0 19 19" fill="none" xmlns="http://www.w3.org/2000/svg">
<path d="M16.6841 5.26307C17.0462 4.39606 16.637 3.39964 15.77 3.0375C14.903 2.67536 13.9065 3.08463 13.5444 3.95163C13.1822 4.81864 13.5915 5.81506 14.4585 6.1772C15.3255 6.53934 16.3219 6.13007 16.6841 5.26307Z" fill="white"/>
<path d="M14.004 7.45039L15.9183 10.2167C16.1933 10.6157 16.8161 10.4189 16.8161 9.93627V7.81438C16.8161 7.14303 16.2715 6.5957 15.5974 6.5957H14.4488C14.0094 6.5957 13.7532 7.08911 14.0013 7.4477L14.004 7.45039Z" fill="white"/>
<path d="M9.83345 11.8828C8.04588 10.8556 5.42789 10.4943 3.36261 11.2681L1.79613 13.7405C1.1841 14.7084 1.87702 15.9702 3.02289 15.9702H15.9807C16.0293 15.9702 16.0751 15.9648 16.121 15.9594C14.9427 15.7276 13.8993 15.0832 12.8855 14.2527C11.8879 13.4358 10.9524 12.5245 9.83345 11.8828Z" fill="#FF9F72"/>
<path d="M17.1729 13.6912L10.4028 3.92562C9.80962 3.07093 8.53702 3.09789 7.98161 3.97684L3.36035 11.27C5.42832 10.4989 8.04362 10.8575 9.83119 11.8847C10.9501 12.5264 11.8857 13.4377 12.8833 14.2547C13.897 15.0851 14.9405 15.7295 16.1187 15.9614C17.2026 15.8589 17.8119 14.6133 17.1702 13.6912H17.1729Z" fill="#FA6017"/>
</svg>
