<svg width="16" height="14" viewBox="0 0 16 14" fill="none" xmlns="http://www.w3.org/2000/svg">
<g opacity="0.25">
<path d="M8.33637 9.45224C6.53338 8.41613 3.89281 8.05173 1.80973 8.83221L0.229736 11.3259C-0.387576 12.3022 0.311319 13.5749 1.46708 13.5749H14.5367C14.5856 13.5749 14.6319 13.5695 14.6781 13.564C13.4897 13.3302 12.4373 12.6802 11.4148 11.8426C10.4086 11.0186 9.46494 10.0995 8.33637 9.45224Z" fill="#CDCCCE"/>
<path d="M15.7383 11.2788L8.9098 1.42905C8.31153 0.56699 7.02795 0.594184 6.46775 1.48072L1.80664 8.83679C3.89245 8.05903 6.5303 8.42072 8.33328 9.45682C9.46185 10.104 10.4055 11.0232 11.4117 11.8472C12.4342 12.6848 13.4866 13.3347 14.675 13.5686C15.7682 13.4653 16.3828 12.2089 15.7356 11.2788H15.7383Z" fill="#999CA0"/>
</g>
</svg>
