<svg width="85" height="85" viewBox="0 0 85 85" fill="none" xmlns="http://www.w3.org/2000/svg">
<path d="M24.7917 70.8337H60.2083M31.875 56.667V70.8337M53.125 56.667V70.8337M10.625 17.7087C10.625 16.7694 10.9981 15.8685 11.6623 15.2043C12.3265 14.5401 13.2274 14.167 14.1667 14.167H70.8333C71.7726 14.167 72.6735 14.5401 73.3377 15.2043C74.0019 15.8685 74.375 16.7694 74.375 17.7087V53.1253C74.375 54.0646 74.0019 54.9655 73.3377 55.6297C72.6735 56.2939 71.7726 56.667 70.8333 56.667H14.1667C13.2274 56.667 12.3265 56.2939 11.6623 55.6297C10.9981 54.9655 10.625 54.0646 10.625 53.1253V17.7087Z" stroke="white" stroke-width="5" stroke-linecap="round" stroke-linejoin="round"/>
<path d="M28.333 42.5007L38.958 31.8757L46.0413 38.959L56.6663 28.334" stroke="#FA6017" stroke-width="5" stroke-linecap="round" stroke-linejoin="round"/>
</svg>
