<svg width="25" height="25" viewBox="0 0 25 25" fill="none" xmlns="http://www.w3.org/2000/svg">
<path opacity="0.25" d="M7.29167 20.8337H17.7083M9.375 16.667V20.8337M15.625 16.667V20.8337M3.125 5.20866C3.125 4.93239 3.23475 4.66744 3.4301 4.47209C3.62545 4.27674 3.8904 4.16699 4.16667 4.16699H20.8333C21.1096 4.16699 21.3746 4.27674 21.5699 4.47209C21.7653 4.66744 21.875 4.93239 21.875 5.20866V15.6253C21.875 15.9016 21.7653 16.1665 21.5699 16.3619C21.3746 16.5572 21.1096 16.667 20.8333 16.667H4.16667C3.8904 16.667 3.62545 16.5572 3.4301 16.3619C3.23475 16.1665 3.125 15.9016 3.125 15.6253V5.20866Z" stroke="white" stroke-linecap="round" stroke-linejoin="round"/>
<path d="M8.33301 12.5007L11.458 9.37565L13.5413 11.459L16.6663 8.33398" stroke="white" stroke-linecap="round" stroke-linejoin="round"/>
</svg>
