<svg width="111" height="105" viewBox="0 0 111 105" fill="none" xmlns="http://www.w3.org/2000/svg">
<path d="M56.5202 94.0598H50.6302C49.6602 93.9298 48.6902 93.8198 47.7302 93.6798C40.8402 92.6598 34.4802 90.2598 28.9402 86.0198C15.8102 75.9798 10.1902 62.6298 12.0702 46.2198C12.8702 39.2698 15.5302 32.9398 19.7002 27.3098C26.3502 18.3498 35.1502 12.7798 46.1202 10.7198C47.6102 10.4398 49.1302 10.2698 50.6302 10.0498C52.5902 10.0498 54.5602 10.0498 56.5202 10.0498C57.4902 10.1798 58.4602 10.2898 59.4202 10.4298C66.3102 11.4398 72.6102 13.9098 78.2102 18.0698C87.2102 24.7498 92.7902 33.6098 94.8302 44.6598C95.1002 46.1298 95.2702 47.6198 95.4802 49.0998V55.0098C95.3002 56.3298 95.1602 57.6598 94.9402 58.9698C93.7102 66.1898 90.8602 72.6998 86.2402 78.3798C79.6702 86.4598 71.2702 91.4898 61.0302 93.3898C59.5402 93.6698 58.0202 93.8398 56.5202 94.0498V94.0598ZM80.7702 38.4398C80.7702 37.1098 80.3702 35.9098 79.5702 34.8598C77.2802 31.8498 73.1702 31.7198 70.3602 34.5798C63.6902 41.3498 57.0302 48.1298 50.3602 54.8998C48.7802 56.5098 47.1302 56.5098 45.5202 54.8998C42.5502 51.9198 39.5802 48.9498 36.6102 45.9698C35.0002 44.3498 33.0602 43.7298 30.8502 44.2798C26.3202 45.4098 24.8302 50.8998 28.1502 54.2598C33.2502 59.4298 38.3902 64.5698 43.5402 69.6898C46.1702 72.2998 49.9802 72.2598 52.6102 69.6398C54.1002 68.1498 55.5402 66.6198 57.0102 65.1198C64.2602 57.7298 71.5002 50.3398 78.7602 42.9598C80.0002 41.6998 80.7602 40.2498 80.7602 38.4498L80.7702 38.4398Z" fill="white"/>
<path d="M80.7697 38.4499C80.7697 40.2499 80.0097 41.6999 78.7697 42.9599C71.5097 50.3399 64.2597 57.7299 57.0197 65.1199C55.5497 66.6199 54.1097 68.1599 52.6197 69.6399C49.9897 72.2699 46.1797 72.3099 43.5497 69.6899C38.3997 64.5699 33.2597 59.4299 28.1597 54.2599C24.8397 50.8899 26.3297 45.4099 30.8597 44.2799C33.0697 43.7299 35.0097 44.3599 36.6197 45.9699C39.5897 48.9499 42.5597 51.9199 45.5297 54.8999C47.1297 56.4999 48.7797 56.5099 50.3697 54.8999C57.0397 48.1299 63.6997 41.3499 70.3697 34.5799C73.1797 31.7299 77.2797 31.8599 79.5797 34.8599C80.3797 35.9099 80.7797 37.1099 80.7797 38.4399L80.7697 38.4499Z" fill="#FA6017"/>
</svg>
