<svg width="104" height="107" viewBox="0 0 104 107" fill="none" xmlns="http://www.w3.org/2000/svg">
<path opacity="0.25" d="M51.4405 15.6799C51.4405 19.6699 51.4305 23.6599 51.4405 27.6499C51.4605 32.4099 54.9005 35.8699 59.6405 35.8799C63.0005 35.8899 66.3505 35.8799 69.7105 35.8799C70.0105 35.8799 70.3005 35.8799 70.6705 35.8799V51.4199C69.8005 51.4199 68.9605 51.3999 68.1205 51.4199C62.3705 51.5699 57.2505 53.4999 52.7605 57.0799C52.0605 57.6399 51.3805 57.8999 50.4805 57.8899C43.1105 57.8499 35.7505 57.8699 28.3805 57.8799C27.9705 57.8799 27.5605 57.8999 27.1705 57.9999C26.4705 58.1799 26.1305 58.7299 26.1505 59.4099C26.1705 60.1199 26.5305 60.6699 27.2905 60.7999C27.6605 60.8699 28.0505 60.8799 28.4305 60.8799C34.8705 60.8799 41.3105 60.8799 47.7505 60.8799H48.7505C47.8305 62.3799 46.9805 63.7699 46.1405 65.1599C45.9805 65.4199 45.7905 65.6799 45.7305 65.9599C45.4505 67.3699 44.5605 67.5699 43.2505 67.5499C38.3105 67.4699 33.3705 67.5199 28.4305 67.5199C28.1805 67.5199 27.9405 67.4999 27.6905 67.5199C26.7205 67.6099 26.1005 68.2399 26.1205 69.0799C26.1505 69.9399 26.7605 70.4999 27.7805 70.5099C32.8305 70.5199 37.8805 70.5099 42.9205 70.5099C43.2405 70.5099 43.5605 70.5099 44.0005 70.5099C42.6505 76.1799 43.0405 81.6299 45.2205 87.0199H44.2305C37.1605 87.0199 30.1005 87.0199 23.0305 87.0199C18.5205 87.0199 15.7205 84.2299 15.7205 79.7199C15.7205 60.8599 15.7605 41.9899 15.6905 23.1299C15.6805 19.5299 17.8005 16.3999 21.3105 15.7499C21.3605 15.7499 21.4005 15.6899 21.4505 15.6699C31.4405 15.6699 41.4305 15.6699 51.4105 15.6699L51.4405 15.6799ZM37.1605 51.4499C40.2105 51.4499 43.2705 51.4499 46.3205 51.4499C47.5405 51.4499 48.2205 50.8699 48.2005 49.8899C48.1805 48.9499 47.5505 48.4599 46.3105 48.4599C40.2305 48.4599 34.1505 48.4599 28.0705 48.4599C27.8505 48.4599 27.6305 48.4599 27.4205 48.4899C26.6305 48.5999 26.1005 49.2399 26.1505 50.0299C26.2105 50.9299 26.8705 51.4499 28.0005 51.4599C31.0505 51.4599 34.1105 51.4599 37.1605 51.4599V51.4499Z" fill="white"/>
<path opacity="0.5" d="M66.8305 99.6804C65.6605 99.4504 64.4605 99.3104 63.3105 98.9904C54.2705 96.4104 48.5805 90.5204 46.6505 81.3104C44.4005 70.5904 50.6805 59.6204 60.9505 55.8804C72.3505 51.7304 84.9005 57.0304 89.5205 68.2504C93.0905 76.9204 91.6705 85.0204 85.5405 92.1404C81.8305 96.4504 77.0105 98.8204 71.3805 99.5304C71.1705 99.5604 70.9605 99.6304 70.7505 99.6904H66.8205L66.8305 99.6804ZM67.3105 78.6904C67.3105 80.7204 67.3105 82.6304 67.3105 84.5404C67.3105 85.6504 67.8905 86.3404 68.7805 86.3504C69.6805 86.3704 70.2705 85.6804 70.2805 84.5804C70.2805 83.9204 70.2805 83.2704 70.2805 82.6104C70.2805 81.3304 70.2805 80.0504 70.2805 78.6904C70.6605 78.6904 70.9505 78.6904 71.2405 78.6904C72.9005 78.6904 74.5705 78.7004 76.2305 78.6904C77.2705 78.6804 77.9405 78.0704 77.9505 77.2004C77.9505 76.3304 77.2805 75.7204 76.2505 75.7104C74.5605 75.7004 72.8705 75.7104 71.1705 75.7104C70.8805 75.7104 70.6005 75.6804 70.3405 75.6704C70.3005 75.5104 70.2805 75.4604 70.2805 75.4004C70.2805 73.5104 70.2805 71.6304 70.2705 69.7404C70.2705 68.6104 69.7305 67.9504 68.8105 67.9404C67.8805 67.9304 67.3005 68.6304 67.2905 69.7804C67.2905 71.2604 67.2905 72.7304 67.2905 74.2104C67.2905 74.6904 67.2905 75.1704 67.2905 75.7104C66.8705 75.7104 66.5805 75.7104 66.2805 75.7104C64.5605 75.7104 62.8405 75.6904 61.1205 75.7204C60.0205 75.7404 59.3705 76.5604 59.6005 77.5704C59.7605 78.2604 60.3805 78.6904 61.3005 78.7004C63.2605 78.7104 65.2205 78.7004 67.2905 78.7004L67.3105 78.6904Z" fill="white"/>
<path opacity="0.25" d="M68.65 32.9003C67.12 32.9003 65.8 32.9003 64.48 32.9003C62.9 32.9003 61.32 32.9003 59.74 32.9003C56.65 32.9003 54.55 30.9703 54.46 27.8803C54.37 24.7103 54.44 21.5403 54.44 18.3703C54.44 18.3003 54.48 18.2303 54.54 18.0303C59.24 22.9803 63.88 27.8703 68.65 32.9003Z" fill="white"/>
</svg>
