<svg width="107" height="97" viewBox="0 0 107 97" fill="none" xmlns="http://www.w3.org/2000/svg">
<path d="M61.8539 9.20801C70.7643 9.20801 79.6746 9.20801 88.5944 9.20801C89.359 9.55513 90.1802 9.81546 90.8881 10.2686C92.2756 11.1461 92.9552 12.5635 93.38 14.1159V51.6045C93.3234 51.7492 93.2478 51.8842 93.2101 52.0288C92.4833 54.6804 90.284 56.4642 87.5939 56.4738C79.3537 56.4931 71.1229 56.5027 62.8827 56.4738C59.6357 56.4642 57.0966 53.8608 57.0872 50.5343C57.0589 38.7323 57.0683 26.9303 57.0872 15.1283C57.0872 12.6117 58.588 10.4615 60.8439 9.57441C61.1743 9.44906 61.5141 9.33336 61.8444 9.20801H61.8539Z" fill="white"/>
<path d="M45.7788 90.202H19.0383C18.9722 90.1635 18.9156 90.1056 18.84 90.0863C15.7913 89.2089 14.2527 87.1455 14.2527 83.925C14.2527 72.3544 14.2999 60.7839 14.215 49.2133C14.1961 46.0314 16.5181 42.888 20.388 42.9073C28.3923 42.9555 36.4059 42.917 44.4102 42.9266C48.0347 42.9266 50.5361 45.4721 50.5455 49.1747C50.5455 51.9131 50.5455 54.6611 50.5455 57.3995C50.5455 66.251 50.5455 75.1121 50.5455 83.9636C50.5455 86.538 49.46 88.4665 47.2041 89.6525C46.751 89.8839 46.2602 90.0285 45.7788 90.2117V90.202Z" fill="white"/>
<path d="M45.7794 9.20801C45.9398 9.2755 46.1003 9.343 46.2702 9.39121C48.7715 10.124 50.5177 12.3706 50.5366 15.0511C50.5744 20.1615 50.5838 25.2718 50.5366 30.3822C50.4988 33.6316 47.9881 36.206 44.8072 36.2157C36.5198 36.2542 28.2324 36.2542 19.9355 36.2157C16.7263 36.1964 14.2627 33.5351 14.2627 30.2665C14.2627 25.2911 14.2627 20.3061 14.2627 15.3308C14.2627 12.3031 15.9051 10.1433 18.7745 9.35264C18.8689 9.32371 18.9539 9.26586 19.0482 9.21765C27.9586 9.21765 36.869 9.21765 45.7888 9.21765L45.7794 9.20801Z" fill="#FA6017"/>
<path d="M61.8536 90.202C61.6932 90.1345 61.5327 90.067 61.3628 90.0188C58.8615 89.2764 57.1153 87.0394 57.0964 84.3685C57.0587 79.2582 57.0492 74.1479 57.0964 69.0375C57.1247 65.7978 59.6449 63.2137 62.8164 63.1944C71.1038 63.1558 79.3912 63.1655 87.6786 63.1944C90.3215 63.204 92.5019 65.0168 93.2099 67.6394C93.2476 67.784 93.3231 67.919 93.3798 68.0637V85.3038C92.955 86.8273 92.3037 88.235 90.9445 89.1028C90.2177 89.5657 89.3776 89.8453 88.5848 90.2117H61.8442L61.8536 90.202Z" fill="#FA6017"/>
</svg>
