<svg width="94" height="101" viewBox="0 0 94 101" fill="none" xmlns="http://www.w3.org/2000/svg">
<path opacity="0.25" d="M66.5702 93.55H18.1002C17.9802 93.5 17.8602 93.42 17.7402 93.39C13.4202 92.52 10.4102 88.9 10.4102 84.5C10.4102 62.53 10.4102 40.56 10.4102 18.59C10.4102 14.7 12.7602 11.38 16.4002 10.06C16.9602 9.86004 17.5302 9.71004 18.1002 9.54004C28.3102 9.54004 38.5102 9.54004 48.7202 9.54004C48.7202 15.64 48.7202 21.73 48.7202 27.83C48.7202 31.76 51.1102 34.15 55.0502 34.15C61.1402 34.15 67.2202 34.15 73.3102 34.15H74.2402C74.2502 34.39 74.2702 34.5 74.2702 34.61C74.2702 51.34 74.2702 68.08 74.2702 84.81C74.2702 88.63 71.4602 92.18 67.7402 93.2C67.3502 93.31 66.9702 93.42 66.5802 93.54L66.5702 93.55ZM41.8502 47.29C45.7202 47.29 49.6002 47.29 53.4702 47.29C55.5702 47.29 57.6702 47.32 59.7702 47.29C61.6302 47.26 62.8202 45.5 62.1002 43.88C61.6002 42.75 60.6402 42.36 59.4402 42.36C47.7102 42.37 35.9902 42.36 24.2602 42.36C24.0702 42.36 23.8802 42.36 23.6902 42.37C21.9102 42.56 20.8802 44.37 21.6802 45.92C22.2002 46.93 23.0902 47.29 24.1802 47.29C30.0702 47.29 35.9602 47.29 41.8502 47.29ZM41.8502 55.49C38.1402 55.49 34.4302 55.49 30.7202 55.49C28.4802 55.49 26.2502 55.47 24.0102 55.49C22.0902 55.51 20.8602 57.25 21.6002 58.9C22.1102 60.03 23.0602 60.42 24.2602 60.42C35.9902 60.41 47.7102 60.42 59.4402 60.42C59.6302 60.42 59.8202 60.42 60.0102 60.41C61.7902 60.21 62.8202 58.41 62.0202 56.86C61.5002 55.85 60.6102 55.49 59.5202 55.49C53.6302 55.49 47.7402 55.49 41.8502 55.49ZM29.8202 73.54C31.7002 73.54 33.5802 73.54 35.4602 73.54C37.0502 73.54 38.1602 72.53 38.1802 71.11C38.2002 69.67 37.0602 68.62 35.4302 68.62C31.6702 68.62 27.9102 68.62 24.1502 68.62C22.5202 68.62 21.3602 69.66 21.3702 71.09C21.3702 72.52 22.5302 73.54 24.1702 73.54C26.0502 73.54 27.9302 73.54 29.8102 73.54H29.8202Z" fill="white"/>
<path opacity="0.5" d="M41.8501 47.2899C35.9601 47.2899 30.0701 47.2899 24.1801 47.2899C23.0901 47.2899 22.2001 46.9299 21.6801 45.9199C20.8801 44.3699 21.9101 42.5599 23.6901 42.3699C23.8801 42.3499 24.0701 42.3599 24.2601 42.3599C35.9901 42.3599 47.7101 42.3599 59.4401 42.3599C60.6401 42.3599 61.5901 42.7499 62.1001 43.8799C62.8201 45.4999 61.6301 47.2599 59.7701 47.2899C57.6701 47.3299 55.5701 47.2899 53.4701 47.2899C49.6001 47.2899 45.7201 47.2899 41.8501 47.2899Z" fill="white"/>
<path opacity="0.5" d="M41.8399 55.4903C47.7299 55.4903 53.6199 55.4903 59.5099 55.4903C60.5999 55.4903 61.4899 55.8503 62.0099 56.8603C62.8099 58.4103 61.7899 60.2103 59.9999 60.4103C59.8099 60.4303 59.6199 60.4203 59.4299 60.4203C47.6999 60.4203 35.9799 60.4203 24.2499 60.4203C23.0499 60.4203 22.0999 60.0303 21.5899 58.9003C20.8499 57.2503 22.0799 55.5103 23.9999 55.4903C26.2399 55.4703 28.4699 55.4903 30.7099 55.4903C34.4199 55.4903 38.1299 55.4903 41.8399 55.4903Z" fill="white"/>
<path opacity="0.5" d="M29.8199 73.5401C27.9399 73.5401 26.0599 73.5401 24.1799 73.5401C22.5399 73.5401 21.3899 72.5201 21.3799 71.0901C21.3799 69.6601 22.5299 68.6201 24.1599 68.6201C27.9199 68.6201 31.6799 68.6201 35.4399 68.6201C37.0699 68.6201 38.2099 69.6701 38.1899 71.1101C38.1699 72.5301 37.0499 73.5301 35.4699 73.5401C33.5899 73.5401 31.7099 73.5401 29.8299 73.5401H29.8199Z" fill="white"/>
<path opacity="0.5" d="M73.0196 29.2401C67.9696 29.2401 62.9297 29.2401 57.8797 29.2401C56.7896 29.2401 55.6996 29.2401 54.6096 29.2401C53.9796 29.2401 53.6396 28.9601 53.6396 28.3101C53.6396 22.4901 53.6396 16.6701 53.6396 10.8401C53.6396 10.8001 53.6796 10.7501 53.7696 10.5801C54.3896 11.0401 55.0397 11.4401 55.5797 11.9501C60.8597 16.9301 66.1296 21.9301 71.3896 26.9401C72.0496 27.5701 72.5796 28.3301 73.1696 29.0301C73.1196 29.1001 73.0696 29.1701 73.0196 29.2401Z" fill="white"/>
</svg>
