<svg width="20" height="16" viewBox="0 0 20 16" fill="none" xmlns="http://www.w3.org/2000/svg">
<path d="M19.203 3.49326C19.6433 2.44185 19.1457 1.23351 18.0917 0.79434C17.0377 0.355174 15.8263 0.851492 15.386 1.9029C14.9458 2.95431 15.4433 4.16266 16.4974 4.60182C17.5514 5.04099 18.7628 4.54467 19.203 3.49326Z" fill="#CDCCCE"/>
<path d="M15.9444 6.14585L18.2717 9.50049C18.606 9.9844 19.3632 9.74572 19.3632 9.16045V6.58725C19.3632 5.77311 18.701 5.10938 17.8816 5.10938H16.4852C15.951 5.10938 15.6396 5.70772 15.9411 6.14258L15.9444 6.14585Z" fill="#CDCCCE"/>
<g opacity="0.25">
<path d="M10.1347 10.9996C7.94278 9.74316 4.73258 9.30125 2.20012 10.2477L0.279295 13.2718C-0.471184 14.4558 0.378477 15.9991 1.78356 15.9991H17.6726C17.7321 15.9991 17.7883 15.9926 17.8445 15.986C16.3997 15.7023 15.1203 14.9142 13.8772 13.8984C12.6539 12.8992 11.5067 11.7845 10.1347 10.9996Z" fill="#CDCCCE"/>
<path d="M19.1343 13.2149L10.8327 1.27012C10.1054 0.224711 8.54493 0.25769 7.86388 1.33278L2.19727 10.2534C4.73303 9.31024 7.93992 9.74885 10.1318 11.0053C11.5039 11.7902 12.6511 12.9049 13.8743 13.9041C15.1174 14.9198 16.3969 15.708 17.8416 15.9916C19.1707 15.8663 19.9178 14.3427 19.131 13.2149H19.1343Z" fill="#999CA0"/>
</g>
</svg>
