<svg width="88" height="109" viewBox="0 0 88 109" fill="none" xmlns="http://www.w3.org/2000/svg">
<path opacity="0.25" d="M75.5696 101.72H14.1696C11.7496 100.53 11.7496 99.3697 12.0196 95.6797C12.3596 95.6797 12.6996 95.6797 13.0496 95.6797C24.5596 95.6797 36.0697 95.6797 47.5797 95.6797C49.6897 95.6797 50.8496 94.4997 50.8496 92.3697C50.8496 83.5997 50.8496 74.8197 50.8496 66.0497C50.8496 65.7197 50.8497 65.3897 50.7696 65.0797C50.3997 63.5197 49.2396 62.7197 47.3196 62.7197C35.8896 62.7197 24.4596 62.7197 13.0296 62.7197H11.9096V61.5597C11.9096 48.2497 11.9296 34.9397 11.8896 21.6297C11.8896 19.7897 12.4196 18.4497 14.1696 17.7197C30.9296 17.7197 47.6796 17.7197 64.4397 17.7197C64.4297 19.9297 64.3496 22.1497 64.4196 24.3497C64.5196 27.6097 66.9396 30.5297 70.1696 30.9797C72.3696 31.2897 74.6297 31.1297 76.8596 31.1897C77.1696 31.1897 77.4896 31.1897 77.8496 31.1897V32.3797C77.8496 54.1897 77.8397 76.0097 77.8697 97.8197C77.8697 99.6597 77.3297 101 75.5696 101.72ZM44.7896 50.6997C53.0896 50.6997 61.3797 50.6997 69.6796 50.6997C69.9496 50.6997 70.2296 50.7197 70.4996 50.6897C71.2397 50.5997 71.7996 49.9697 71.8196 49.2497C71.8396 48.4997 71.2597 47.8397 70.4797 47.7397C70.2397 47.7097 69.9896 47.7297 69.7396 47.7297C53.1796 47.7297 36.6096 47.7297 20.0496 47.7297C19.7996 47.7297 19.5596 47.7097 19.3096 47.7297C18.5296 47.8097 17.9296 48.4697 17.9396 49.2097C17.9396 49.9597 18.5396 50.5997 19.3296 50.6797C19.5696 50.6997 19.8196 50.6797 20.0696 50.6797C28.3096 50.6797 36.5497 50.6797 44.7896 50.6797V50.6997ZM44.7896 43.1797C52.8697 43.1797 60.9396 43.1797 69.0196 43.1797C69.4796 43.1797 69.9497 43.1997 70.4097 43.1797C71.1797 43.1397 71.7496 42.5797 71.8096 41.8397C71.8696 41.1297 71.4396 40.4997 70.7096 40.3197C70.3496 40.2297 69.9597 40.2197 69.5797 40.2197C53.1297 40.2197 36.6796 40.2197 20.2196 40.2197C19.9196 40.2197 19.5796 40.1397 19.3296 40.2597C18.8896 40.4697 18.3796 40.7297 18.1296 41.1097C17.5496 41.9797 18.3896 43.2197 19.7396 43.2097C28.0896 43.1497 36.4396 43.1797 44.7896 43.1797ZM44.9396 55.2597C38.0396 55.2597 31.1296 55.2597 24.2296 55.2597C22.6196 55.2597 21.0096 55.2497 19.3996 55.2597C18.6296 55.2697 18.0396 55.8297 17.9496 56.5597C17.8596 57.2597 18.3496 57.9497 19.0996 58.1297C19.3596 58.1997 19.6396 58.2097 19.9096 58.2097C36.5496 58.2097 53.1996 58.2097 69.8396 58.2097C70.1596 58.2097 70.4996 58.1797 70.8096 58.0897C71.5196 57.8597 71.8496 57.3197 71.8096 56.5797C71.7696 55.8797 71.1997 55.3197 70.4797 55.2597C70.2097 55.2397 69.9297 55.2497 69.6597 55.2497C61.4197 55.2497 53.1796 55.2497 44.9396 55.2497V55.2597ZM37.5096 25.2497C31.5596 25.2497 25.6096 25.2497 19.6596 25.2497C18.6296 25.2497 17.9496 25.8497 17.9496 26.7097C17.9496 27.5697 18.6296 28.1797 19.6496 28.2197C19.7896 28.2197 19.9196 28.2197 20.0596 28.2197C31.6296 28.2197 43.1996 28.2197 54.7696 28.2197C55.0896 28.2197 55.4296 28.2197 55.7397 28.1397C56.6996 27.8697 57.1196 26.8397 56.6396 25.9897C56.2796 25.3597 55.6996 25.2497 55.0296 25.2497C49.1896 25.2497 43.3496 25.2497 37.5096 25.2497ZM37.3797 35.7197C43.1397 35.7197 48.8896 35.7197 54.6497 35.7197C55.0297 35.7197 55.4196 35.7197 55.7796 35.6197C56.5096 35.4297 56.8596 34.8797 56.8196 34.1497C56.7796 33.4197 56.3797 32.9197 55.6297 32.7997C55.3097 32.7497 54.9797 32.7497 54.6497 32.7497C43.1597 32.7497 31.6796 32.7497 20.1896 32.7497C19.8596 32.7497 19.5296 32.7497 19.2096 32.7897C18.4996 32.8897 17.9296 33.4897 17.9496 34.1797C17.9696 34.8997 18.3096 35.4397 19.0496 35.6197C19.4196 35.7097 19.8096 35.7197 20.1896 35.7197C25.9196 35.7197 31.6497 35.7197 37.3797 35.7197ZM63.5496 73.1897C65.7296 73.1897 67.9096 73.1897 70.0896 73.1897C71.1396 73.1897 71.7997 72.6297 71.8297 71.7597C71.8497 70.8597 71.1696 70.2197 70.0996 70.2197C65.7696 70.2197 61.4296 70.2097 57.0996 70.2197C56.0596 70.2197 55.4296 70.8197 55.4296 71.7197C55.4296 72.6397 56.0396 73.1897 57.0996 73.1897C59.2496 73.1897 61.4096 73.1897 63.5597 73.1897H63.5496ZM63.6297 77.7497C61.4496 77.7497 59.2696 77.7497 57.0896 77.7497C56.0196 77.7497 55.4196 78.2997 55.4196 79.2197C55.4196 80.1197 56.0496 80.7097 57.0896 80.7197C61.4196 80.7297 65.7496 80.7297 70.0896 80.7197C71.1596 80.7197 71.8496 80.0897 71.8196 79.1797C71.7996 78.3097 71.1296 77.7497 70.0896 77.7497C67.9396 77.7497 65.7797 77.7497 63.6297 77.7497ZM63.5396 95.6797C65.7197 95.6797 67.8997 95.6797 70.0797 95.6797C71.1497 95.6797 71.7896 95.1397 71.8196 94.2697C71.8496 93.3897 71.1996 92.7297 70.1696 92.7297C65.7796 92.7097 61.3996 92.7097 57.0096 92.7297C55.9796 92.7297 55.3797 93.3797 55.4096 94.2997C55.4396 95.1797 56.0297 95.6797 57.0797 95.6797C59.2297 95.6797 61.3797 95.6797 63.5396 95.6797ZM63.5396 65.6997C65.5797 65.6997 67.6296 65.6997 69.6696 65.6997C71.1396 65.6997 71.8496 65.1997 71.8196 64.1897C71.7896 63.1997 71.0996 62.7297 69.6796 62.7297C65.6196 62.7297 61.5597 62.7297 57.4996 62.7297C57.1796 62.7297 56.8396 62.7397 56.5296 62.8097C55.7996 62.9797 55.4196 63.4597 55.4096 64.2197C55.3997 65.1497 55.9797 65.6897 57.0797 65.6997C59.2297 65.7197 61.3797 65.6997 63.5396 65.6997ZM63.7197 85.2497C61.4897 85.2497 59.2496 85.2297 57.0196 85.2497C55.9796 85.2597 55.4196 85.8097 55.4196 86.7097C55.4196 87.5897 55.9896 88.1397 57.0096 88.2097C57.2296 88.2297 57.4496 88.2097 57.6596 88.2097C61.6396 88.2097 65.6096 88.2097 69.5896 88.2097C69.8396 88.2097 70.0796 88.2097 70.3196 88.1897C71.2596 88.0897 71.8396 87.4997 71.8196 86.6697C71.7996 85.8397 71.2097 85.2497 70.2597 85.2397C68.0797 85.2097 65.8997 85.2397 63.7197 85.2397V85.2497Z" fill="white"/>
<path opacity="0.25" d="M0 65.7598H47.84V92.6698H0V65.7598ZM16.56 79.1998C16.56 79.1998 16.49 79.1998 16.46 79.1998C16.46 80.2598 16.44 81.3298 16.46 82.3898C16.52 85.4898 18.92 87.9398 22.12 88.1798C25.04 88.3998 27.92 86.2698 28.23 83.3198C28.5 80.8098 28.51 78.2398 28.35 75.7198C28.15 72.6098 25.68 70.3698 22.66 70.2198C19.73 70.0798 17.09 72.1498 16.6 75.1898C16.39 76.4898 16.56 77.8498 16.56 79.1898V79.1998ZM40.33 82.2098C40.38 83.8498 39.18 85.1198 37.56 85.2298C35.93 85.3498 34.49 84.1098 34.41 82.3598C34.32 80.2898 34.33 78.2098 34.41 76.1298C34.47 74.5598 35.47 73.5098 36.94 73.2298C38.2 72.9898 39.52 73.7398 40.18 75.0698C40.66 76.0398 41.4 76.3798 42.21 76.0098C43.03 75.6398 43.27 74.8398 42.87 73.8598C41.89 71.5098 39.24 69.9298 36.82 70.2598C33.89 70.6698 31.68 72.7398 31.52 75.5098C31.37 77.9598 31.39 80.4298 31.52 82.8798C31.64 85.2898 33.42 87.2898 35.74 87.9598C38.09 88.6398 40.62 87.7998 42.12 85.8998C43.43 84.2398 43.49 82.3198 43.3 80.3698C43.23 79.6498 42.63 79.2598 41.89 79.2498C40.91 79.2298 39.93 79.2298 38.94 79.2498C38.05 79.2698 37.41 79.9198 37.42 80.7398C37.42 81.5598 38.06 82.1798 38.96 82.2098C39.42 82.2298 39.88 82.2098 40.33 82.2098ZM7.46 85.2498V84.2098C7.46 80.2998 7.46 76.3998 7.46 72.4898C7.46 72.2698 7.46 72.0498 7.46 71.8298C7.41 70.8798 6.77 70.2098 5.94 70.2298C5.1 70.2498 4.5 70.9198 4.5 71.8898C4.5 76.2298 4.5 80.5798 4.5 84.9198C4.5 86.9898 5.65 88.1798 7.71 88.2198C9.37 88.2498 11.04 88.2198 12.7 88.2198C13 88.2198 13.3 88.2198 13.6 88.1798C14.43 88.0498 14.95 87.4498 14.92 86.6798C14.9 85.8998 14.35 85.3198 13.51 85.2798C12.59 85.2298 11.66 85.2598 10.73 85.2498C9.67 85.2498 8.61 85.2498 7.47 85.2498H7.46Z" fill="white"/>
<path opacity="0.5" d="M67.3704 20.0098C70.1304 22.7798 72.8104 25.4498 75.6604 28.3098C73.8004 28.2198 72.0604 28.2998 70.3804 27.9998C68.6904 27.6998 67.4804 26.0498 67.3904 24.3298C67.3204 22.9198 67.3804 21.5098 67.3804 20.0198L67.3704 20.0098Z" fill="white"/>
<path opacity="0.5" d="M16.5601 79.2003C16.5601 77.8703 16.3901 76.5003 16.6001 75.2003C17.0901 72.1703 19.7301 70.0903 22.6601 70.2303C25.6801 70.3703 28.1601 72.6203 28.3501 75.7303C28.5101 78.2503 28.5001 80.8203 28.2301 83.3303C27.9101 86.2803 25.0301 88.4103 22.1201 88.1903C18.9201 87.9503 16.5201 85.4903 16.4601 82.4003C16.4401 81.3403 16.4601 80.2703 16.4601 79.2103C16.4901 79.2103 16.5301 79.2103 16.5601 79.2103V79.2003ZM19.4201 79.1503C19.4201 80.1603 19.4101 81.1703 19.4201 82.1803C19.4401 83.9003 20.7301 85.2203 22.3901 85.2503C24.0001 85.2803 25.3901 84.0103 25.4301 82.3403C25.4801 80.2703 25.4901 78.1903 25.4301 76.1203C25.3901 74.4703 23.9801 73.1803 22.3801 73.2103C20.7301 73.2403 19.4401 74.5703 19.4201 76.2903C19.4101 77.2403 19.4201 78.2003 19.4201 79.1603V79.1503Z" fill="white"/>
<path opacity="0.5" d="M40.3295 82.2098C39.8795 82.2098 39.4195 82.2198 38.9595 82.2098C38.0595 82.1798 37.4295 81.5598 37.4195 80.7398C37.4195 79.9198 38.0495 79.2798 38.9395 79.2498C39.9195 79.2298 40.8995 79.2298 41.8895 79.2498C42.6295 79.2698 43.2295 79.6498 43.2995 80.3698C43.4895 82.3198 43.4295 84.2398 42.1195 85.8998C40.6295 87.7898 38.0895 88.6298 35.7395 87.9598C33.4095 87.2898 31.6395 85.2998 31.5195 82.8798C31.3995 80.4298 31.3795 77.9598 31.5195 75.5098C31.6795 72.7298 33.8895 70.6598 36.8195 70.2598C39.2395 69.9198 41.8895 71.4998 42.8695 73.8598C43.2795 74.8298 43.0295 75.6298 42.2095 76.0098C41.3995 76.3798 40.6595 76.0398 40.1795 75.0698C39.5195 73.7398 38.1895 72.9898 36.9395 73.2298C35.4795 73.5098 34.4695 74.5598 34.4095 76.1298C34.3295 78.1998 34.3195 80.2898 34.4095 82.3598C34.4895 84.1098 35.9295 85.3498 37.5595 85.2298C39.1795 85.1098 40.3795 83.8398 40.3295 82.2098Z" fill="white"/>
<path opacity="0.5" d="M7.46023 85.2499C8.60023 85.2499 9.66023 85.2499 10.7202 85.2499C11.6502 85.2499 12.5702 85.2299 13.5002 85.2799C14.3402 85.3199 14.8902 85.9099 14.9102 86.6799C14.9302 87.4499 14.4202 88.0499 13.5902 88.1799C13.3002 88.2199 12.9902 88.2199 12.6902 88.2199C11.0302 88.2199 9.36023 88.2399 7.70023 88.2199C5.64023 88.1799 4.49023 86.9899 4.49023 84.9199C4.49023 80.5799 4.49023 76.2299 4.49023 71.8899C4.49023 70.9199 5.09023 70.2499 5.93023 70.2299C6.76023 70.2099 7.40023 70.8799 7.45023 71.8299C7.46023 72.0499 7.45023 72.2699 7.45023 72.4899C7.45023 76.3999 7.45023 80.2999 7.45023 84.2099V85.2499H7.46023Z" fill="white"/>
<path opacity="0.25" d="M19.4205 79.14C19.4205 78.18 19.4105 77.23 19.4205 76.27C19.4405 74.55 20.7305 73.22 22.3805 73.19C23.9805 73.16 25.3805 74.45 25.4305 76.1C25.4905 78.17 25.4905 80.25 25.4305 82.32C25.3905 83.99 24.0005 85.26 22.3905 85.23C20.7305 85.2 19.4505 83.88 19.4205 82.16C19.4105 81.15 19.4205 80.14 19.4205 79.13V79.14Z" fill="white"/>
</svg>
