<svg width="124" height="114" viewBox="0 0 124 114" fill="none" xmlns="http://www.w3.org/2000/svg">
<path d="M56.2697 15.6797C60.0897 15.6797 63.9097 15.6797 67.7297 15.6797C68.2397 15.7397 68.7497 15.8197 69.2597 15.8397C74.9497 16.1197 80.6297 16.5297 86.2597 17.4897C93.4897 18.7197 100.6 25.3897 102.09 32.5897C102.8 35.9997 103.12 39.4897 103.59 42.9497C103.75 44.1297 103.81 45.3297 103.92 46.5197V55.2197C103.87 55.5097 103.81 55.7997 103.78 56.0897C103.33 59.9597 102.96 63.8397 102.42 67.6997C101.22 76.2097 93.4897 82.8897 86.8497 84.0797C82.9997 84.7697 79.0797 85.0797 75.1897 85.5297C74.6997 85.5897 74.4297 85.7497 74.1597 86.1497C71.9097 89.4597 69.6297 92.7597 67.3597 96.0697C66.2497 97.6897 64.9197 99.0497 62.9897 99.6897H61.0297C58.8397 98.9997 57.4997 97.3297 56.2697 95.5397C54.1197 92.4197 51.9897 89.2797 49.8397 86.1597C49.6597 85.8997 49.3397 85.6197 49.0597 85.5897C46.3797 85.2797 43.6997 84.9997 41.0097 84.7597C36.5297 84.3597 32.4497 82.9597 28.9597 80.0397C25.5497 77.1797 22.8497 73.7797 21.9597 69.3597C21.1697 65.4097 20.6297 61.3897 20.3097 57.3697C19.7497 50.2097 20.1397 43.0797 21.2097 35.9697C21.8697 31.5397 23.2997 27.5197 26.3897 24.1797C29.5497 20.7697 33.2597 18.2997 37.9097 17.4897C43.3997 16.5397 48.9397 16.1797 54.4997 15.8697C55.0897 15.8397 55.6897 15.7597 56.2797 15.6997L56.2697 15.6797ZM61.9997 38.9097C58.1797 38.9097 54.3597 38.9097 50.5397 38.9097C47.6497 38.9097 44.7497 38.9097 41.8597 38.9397C40.5297 38.9597 39.4297 39.5697 38.6097 40.5897C37.4097 42.0897 37.1897 43.7797 38.0097 45.5097C38.8397 47.2697 40.3197 48.1697 42.2697 48.1697C53.7897 48.1697 65.2997 48.1697 76.8197 48.1697C78.5397 48.1697 80.2597 48.1997 81.9797 48.1697C84.9497 48.0997 87.0797 45.1897 86.2797 42.3297C85.6697 40.1297 83.9597 38.9197 81.4097 38.9197C74.9397 38.9197 68.4797 38.9197 62.0097 38.9197L61.9997 38.9097ZM61.9997 67.5997C61.9997 67.5997 61.9997 67.5797 61.9997 67.5697C66.0097 67.5697 70.0197 67.6297 74.0297 67.5497C76.4797 67.4997 78.2797 65.3597 78.2297 62.8097C78.1797 60.4397 76.2297 58.3697 73.8597 58.3597C65.9497 58.3197 58.0297 58.3197 50.1197 58.3597C47.2397 58.3797 45.1297 61.3297 45.8797 64.1097C46.4697 66.3197 48.1897 67.5897 50.6997 67.5997C54.4697 67.6197 58.2297 67.5997 61.9997 67.5997Z" fill="white"/>
<path d="M61.9999 38.9095C68.4699 38.9095 74.9399 38.9095 81.3999 38.9095C83.9499 38.9095 85.6599 40.1295 86.2699 42.3195C87.0699 45.1795 84.9399 48.0895 81.9699 48.1595C80.2499 48.1995 78.5299 48.1595 76.8099 48.1595C65.2899 48.1595 53.7799 48.1595 42.2599 48.1595C40.3099 48.1595 38.8299 47.2595 37.9999 45.4995C37.1899 43.7795 37.3999 42.0795 38.5999 40.5795C39.4199 39.5495 40.5199 38.9395 41.8499 38.9295C44.7399 38.8895 47.6299 38.8995 50.5299 38.8995C54.3499 38.8995 58.1699 38.8995 61.9899 38.8995L61.9999 38.9095Z" fill="#FA6017"/>
<path d="M62 67.6C58.23 67.6 54.47 67.61 50.7 67.6C48.19 67.59 46.47 66.32 45.88 64.11C45.14 61.33 47.24 58.38 50.12 58.36C58.03 58.31 65.95 58.32 73.86 58.36C76.23 58.37 78.18 60.44 78.23 62.81C78.28 65.35 76.48 67.5 74.03 67.55C70.02 67.63 66.01 67.57 62 67.57C62 67.58 62 67.59 62 67.6Z" fill="#FA6017"/>
</svg>
