<svg width="100" height="89" viewBox="0 0 100 89" fill="none" xmlns="http://www.w3.org/2000/svg">
<path opacity="0.25" d="M89.3599 70.16V73.11C89.1799 73.82 89.0399 74.54 88.8199 75.24C87.2299 80.33 82.6599 84.01 76.7299 84C57.1899 83.96 37.6499 83.99 18.1099 83.99C13.7699 83.99 10.2299 82.32 7.76985 78.72C4.83985 74.42 4.77986 69.92 7.25986 65.35C17.0799 47.27 26.8799 29.18 36.7099 11.11C39.0999 6.70997 44.0499 4.20997 48.9399 4.88997C53.0999 5.46997 56.2499 7.61997 58.2599 11.33C67.0499 27.49 75.8399 43.64 84.5799 59.82C86.3799 63.16 88.6199 66.32 89.3499 70.16H89.3599ZM52.3499 42.09C52.3499 38.18 52.3799 34.27 52.3299 30.37C52.3199 29.49 52.1699 28.55 51.8199 27.75C50.8999 25.63 48.5699 24.55 46.3399 25.05C44.1399 25.54 42.5499 27.51 42.5399 29.96C42.5099 38.08 42.4999 46.19 42.5399 54.31C42.5599 57.23 44.7299 59.35 47.4799 59.33C50.2499 59.31 52.3299 57.12 52.3499 54.14C52.3699 50.12 52.3499 46.1 52.3499 42.09ZM47.3999 74.11C50.0699 74.12 52.2999 71.93 52.3399 69.25C52.3799 66.61 50.1499 64.36 47.4699 64.32C44.8199 64.28 42.5699 66.5 42.5299 69.18C42.4899 71.83 44.7299 74.09 47.3999 74.11Z" fill="white"/>
<path opacity="0.5" d="M52.3501 42.0896C52.3501 46.1096 52.3701 50.1296 52.3501 54.1396C52.3301 57.1196 50.2501 59.3096 47.4801 59.3296C44.7301 59.3496 42.5501 57.2196 42.5401 54.3096C42.5001 46.1896 42.5101 38.0796 42.5401 29.9596C42.5401 27.5096 44.1501 25.5396 46.3401 25.0496C48.5701 24.5496 50.9001 25.6296 51.8201 27.7496C52.1701 28.5496 52.3201 29.4896 52.3301 30.3696C52.3801 34.2796 52.3501 38.1896 52.3501 42.0896Z" fill="white"/>
<path opacity="0.5" d="M47.3998 74.1099C44.7298 74.0999 42.4898 71.8299 42.5298 69.1799C42.5698 66.4999 44.8198 64.2799 47.4698 64.3199C50.1598 64.3599 52.3798 66.6099 52.3398 69.2499C52.2998 71.9299 50.0698 74.1299 47.3998 74.1099Z" fill="white"/>
</svg>
