<svg width="93" height="93" viewBox="0 0 93 93" fill="none" xmlns="http://www.w3.org/2000/svg">
<path opacity="0.25" d="M59.8793 79.6759C58.4638 79.5849 57.373 78.9876 56.5224 77.8968C55.029 75.9878 53.0941 74.819 50.6721 74.5334C47.5879 74.1697 45.0427 75.2086 42.9974 77.5267C42.7831 77.7669 42.6013 78.0396 42.4 78.2928C41.2312 79.7603 39.4327 80.2862 37.6666 79.6369C34.1408 78.3383 30.9268 76.4813 28.0374 74.0788C26.5115 72.8062 26.1479 71.0401 26.966 69.0597C28.823 64.56 26.8621 59.5604 22.4793 57.6774C21.804 57.3917 21.0768 57.1644 20.3561 57.067C17.7004 56.6969 16.4408 55.4698 16.0901 52.8595C15.6097 49.2949 15.7006 45.7561 16.3629 42.2239C16.72 40.3215 18.1549 38.9579 20.0834 38.7307C25.8297 38.0554 29.271 32.4778 27.3101 27.0367C26.5505 24.9264 27.0374 23.2577 28.8035 21.8812C31.4332 19.8359 34.3161 18.2386 37.4263 17.0568C39.3223 16.3361 41.0429 16.7841 42.3545 18.336C46.0621 22.7188 52.2435 22.7058 55.9575 18.31C57.2431 16.7906 58.9703 16.3426 60.8338 17.0439C64.2361 18.3295 67.3528 20.1151 70.1643 22.4266C71.8785 23.8356 72.3135 25.3809 71.5863 27.4912C69.7942 32.6856 73.0018 38.1073 78.391 39.0034C80.3714 39.3345 81.5921 40.5227 81.9817 42.5226C82.7284 46.3665 82.6634 50.2039 81.9232 54.0413C81.5921 55.7425 80.1896 57.0541 78.4689 57.3138C73.716 58.041 70.6643 61.6446 70.8461 66.4235C70.8785 67.3261 71.1382 68.2481 71.4369 69.1117C72.1382 71.1375 71.7226 72.7932 70.0864 74.1438C67.4957 76.2735 64.6387 77.9682 61.535 79.2343C61.0091 79.4486 60.4312 79.5265 59.8728 79.6629L59.8793 79.6759ZM49.2047 37.1853C43.0623 37.1853 38.0237 42.198 38.0367 48.2884C38.0497 54.4244 43.0363 59.411 49.1787 59.4175C55.2757 59.424 60.2819 54.3854 60.2819 48.2495C60.2819 42.2174 55.2368 37.1853 49.2112 37.1853H49.2047Z" fill="white"/>
<path opacity="0.5" d="M49.198 37.1855C55.2236 37.1855 60.2687 42.2177 60.2687 48.2497C60.2687 54.3856 55.2625 59.4307 49.1655 59.4178C43.0231 59.4113 38.0364 54.4246 38.0235 48.2887C38.0105 42.1982 43.0491 37.1855 49.1915 37.1855H49.198Z" fill="white"/>
</svg>
