<svg width="100" height="95" viewBox="0 0 100 95" fill="none" xmlns="http://www.w3.org/2000/svg">
<path d="M69.3234 70.7524C71.4545 68.8637 73.24 66.7601 74.7606 64.4416C78.7118 58.4137 80.3014 51.7976 79.7485 44.6839C78.7348 31.5988 68.6783 20.0065 55.6269 16.8738C53.7146 16.4214 52.2517 15.5619 51.7909 13.5488C51.1919 10.9476 53.657 8.32377 56.3295 8.85532C61.6285 9.8958 66.4781 12.0333 70.8555 15.1321C79.9443 21.5672 85.658 30.219 87.3859 41.1101C89.4939 54.4101 85.5312 65.9345 75.9471 75.5702C75.7282 75.7964 75.4978 76 75.279 76.2262C75.2444 76.2714 75.2214 76.3279 75.1062 76.5654C76.5807 77.9791 78.1127 79.4494 79.6333 80.9083C79.8983 81.1684 80.1747 81.4285 80.4281 81.7C81.0272 82.3446 81.2691 83.0684 80.8889 83.9053C80.5203 84.7422 79.8291 85.1041 78.9537 85.1268C77.8824 85.1494 76.8226 85.1268 75.7513 85.1268C71.2933 85.1268 66.8237 85.1268 62.3657 85.1268C60.442 85.1268 59.7738 84.4482 59.7738 82.5595C59.7738 77.2101 59.7854 71.8607 59.7738 66.5113C59.7738 65.5274 60.0273 64.7357 60.9719 64.3059C61.8128 63.9214 62.6537 64.1589 63.5061 64.9845C65.4414 66.8845 67.3651 68.7845 69.335 70.741L69.3234 70.7524Z" fill="white"/>
<path d="M20.458 18.5702C18.6264 16.8173 16.9446 15.2 15.2513 13.594C14.5255 12.9042 14.0417 12.1577 14.4795 11.1286C14.9287 10.0768 15.8157 9.85059 16.864 9.85059C22.2666 9.8619 27.6692 9.85059 33.0833 9.85059C34.9379 9.85059 35.6291 10.5405 35.6291 12.3839C35.6291 17.7673 35.6176 23.1393 35.6291 28.5226C35.6291 29.5178 35.3411 30.3095 34.3735 30.694C33.4289 31.0673 32.6225 30.7506 31.9198 30.0381C30.0191 28.1155 28.0724 26.2155 25.9528 24.1232C24.4783 25.8309 22.9232 27.403 21.6215 29.1559C16.9331 35.478 15.0093 42.5917 15.6429 50.3726C16.7257 63.4917 26.7131 75.0048 39.7185 78.1149C41.5846 78.5673 43.0706 79.3476 43.566 81.3268C44.2456 84.0298 41.792 86.6762 39.0158 86.1446C34.2237 85.2059 29.7887 83.3399 25.7339 80.6708C15.977 74.247 9.84865 65.3464 8.01706 53.9351C5.88597 40.7143 9.80257 29.2238 19.283 19.5994C19.5825 19.294 19.9397 19.0226 20.4465 18.5815L20.458 18.5702Z" fill="white"/>
<path d="M41.9885 54.6137C42.9447 53.6298 43.728 52.7929 44.5459 51.9786C50.294 46.3125 56.0537 40.6577 61.8019 34.9917C62.9424 33.872 64.3016 33.4762 65.8452 33.906C67.4004 34.3357 68.3565 35.3875 68.7136 36.9256C69.0131 38.2262 68.6329 39.3798 67.746 40.3524C67.1124 41.0423 66.4327 41.6756 65.7646 42.3315C58.9682 49.0155 52.1717 55.7107 45.3753 62.3946C43.0599 64.6679 40.9518 64.6679 38.6134 62.372C35.0308 58.8548 31.4483 55.3488 27.8888 51.8089C25.9074 49.8411 26.2185 46.9119 28.5108 45.5208C30.1812 44.503 32.1164 44.7744 33.6485 46.2786C36.1482 48.7101 38.6249 51.1643 41.1131 53.6185C41.378 53.8786 41.6084 54.1726 41.9885 54.6024V54.6137Z" fill="#FA6017"/>
</svg>
