<svg width="108" height="98" viewBox="0 0 108 98" fill="none" xmlns="http://www.w3.org/2000/svg">
<path d="M95.9998 70.7696C90.5298 73.4196 84.6898 74.3497 78.5798 74.6597C78.5798 74.1497 78.5798 73.6896 78.5798 73.2396C78.5998 70.5296 78.5798 67.8396 77.7298 65.2196C75.7898 59.3096 71.8898 55.2996 66.1098 53.0896C65.9098 53.0096 65.6998 52.9496 65.4898 52.8796C65.4398 52.8596 65.3998 52.8296 65.2598 52.7496C68.1098 49.8496 69.7098 46.3896 69.8698 42.2796C70.1198 42.2496 70.3298 42.2096 70.5398 42.2096C73.9798 42.2096 77.4098 42.1796 80.8498 42.2396C88.2098 42.3596 94.8098 48.2596 95.8198 55.5696C95.8498 55.7696 95.9398 55.9696 95.9998 56.1696V70.7696Z" fill="white"/>
<path d="M75.6797 76.3398C75.6797 78.4698 75.6597 80.5998 75.6897 82.7298C75.6897 83.2798 75.5097 83.5398 75.0297 83.7698C71.8997 85.2498 68.5896 86.1098 65.1996 86.6598C54.6697 88.3798 44.4197 86.9998 34.3297 83.8698C33.8997 83.7398 33.7297 83.5298 33.7397 83.0698C33.7697 78.4798 33.5397 73.8698 33.8597 69.2998C34.2597 63.6098 37.2697 59.3998 42.2797 56.6698C44.3497 55.5398 46.5897 54.9498 48.9297 54.9198C52.9897 54.8798 57.0697 54.7298 61.1097 55.0098C69.4197 55.5798 75.5497 62.2998 75.6797 70.6698C75.7097 72.5598 75.6797 74.4398 75.6797 76.3298V76.3398Z" fill="#FA6017"/>
<path d="M30.8799 74.6504C28.4699 74.3604 26.2299 74.2304 24.0499 73.7904C20.3499 73.0404 16.6899 72.0804 12.9999 71.2304C12.3799 71.0904 12.1299 70.8304 12.1399 70.1304C12.1799 66.1104 12.1499 62.0904 12.1599 58.0704C12.1799 50.3804 17.3799 44.0104 24.8999 42.4904C25.7699 42.3104 26.6799 42.2404 27.5799 42.2304C31.2599 42.2004 34.9499 42.2204 38.6299 42.2204C38.8999 42.2204 39.1599 42.2504 39.4799 42.2704C39.7099 46.3404 41.2099 49.8204 44.0999 52.7104C34.0399 56.5504 30.0699 64.0804 30.8599 74.6604L30.8799 74.6504Z" fill="white"/>
<path d="M42.4103 41.7798C42.3803 34.9998 47.8703 29.4498 54.6403 29.4298C61.4503 29.3998 67.0003 34.9198 67.0203 41.7298C67.0303 48.5298 61.6003 53.9998 54.7803 54.0698C47.9803 54.1398 42.4503 48.6398 42.4203 41.7898L42.4103 41.7798Z" fill="#FA6017"/>
<path d="M33.0503 16.7104C39.8803 16.6504 45.5403 22.3604 45.3903 29.1304C45.3903 29.4604 45.2003 29.8804 44.9503 30.0904C42.2303 32.4704 40.4603 35.3904 39.7703 38.9604C39.7203 39.2304 39.4703 39.5504 39.2203 39.6904C31.8703 44.0404 22.2303 39.4304 20.9903 30.9704C19.9803 24.0804 24.4303 17.9604 31.2903 16.8304C31.8803 16.7304 32.4903 16.7304 33.0403 16.6904L33.0503 16.7104Z" fill="white"/>
<path d="M87.4001 29.0297C87.3301 37.7397 78.4701 43.7797 70.5401 40.4997C70.0301 40.2897 69.7801 39.9997 69.7001 39.4597C69.0301 35.1297 66.8401 31.7397 63.2701 29.2397C62.8401 28.9397 62.7601 28.6197 62.7801 28.1497C62.9701 23.1997 66.9401 18.3697 71.8601 17.1397C78.8001 15.3997 85.4501 19.4497 87.0701 26.4397C87.2701 27.2797 87.3001 28.1697 87.4101 29.0297H87.4001Z" fill="white"/>
</svg>
