<svg width="19" height="19" viewBox="0 0 19 19" fill="none" xmlns="http://www.w3.org/2000/svg">
<path d="M19.0001 9.55828C19.0001 4.27865 14.7464 -0.00109863 9.50005 -0.00109863C4.25131 8.88673e-05 -0.00231934 4.27865 -0.00231934 9.55946C-0.00231934 14.3297 3.47231 18.284 8.0133 19.0013V12.3216H5.60268V9.55946H8.01568V7.45165C8.01568 5.05646 9.43474 3.73359 11.6043 3.73359C12.6446 3.73359 13.7311 3.92003 13.7311 3.92003V6.27128H12.5329C11.3537 6.27128 10.9856 7.00871 10.9856 7.76515V9.55828H13.6195L13.1991 12.3204H10.9844V19.0001C15.5254 18.2828 19.0001 14.3285 19.0001 9.55828Z" fill="#B2B2B2"/>
</svg>
