<svg width="19" height="19" viewBox="0 0 19 19" fill="none" xmlns="http://www.w3.org/2000/svg">
<path d="M18.0742 5.95898C18.0645 5.23316 17.9286 4.51455 17.6726 3.83531C17.4506 3.26237 17.1115 2.74204 16.6771 2.30757C16.2426 1.87309 15.7223 1.53402 15.1493 1.31202C14.4788 1.06032 13.7704 0.924222 13.0544 0.90952C12.1325 0.868312 11.8402 0.856812 9.49995 0.856812C7.1597 0.856812 6.85974 0.856812 5.94453 0.90952C5.22881 0.92433 4.52078 1.06043 3.85057 1.31202C3.27754 1.53386 2.75713 1.87288 2.32264 2.30738C1.88814 2.74187 1.54912 3.26228 1.32728 3.83531C1.07508 4.50531 0.939272 5.2135 0.925737 5.92927C0.884529 6.85214 0.87207 7.14444 0.87207 9.48469C0.87207 11.8249 0.87207 12.1239 0.925737 13.0401C0.940112 13.7569 1.07524 14.4642 1.32728 15.136C1.54949 15.7088 1.88876 16.229 2.3234 16.6633C2.75805 17.0977 3.27851 17.4365 3.85153 17.6583C4.5199 17.9201 5.22805 18.066 5.94549 18.0896C6.86836 18.1308 7.16065 18.1432 9.5009 18.1432C11.8412 18.1432 12.1411 18.1432 13.0563 18.0896C13.7723 18.0755 14.4807 17.9397 15.1512 17.688C15.724 17.4658 16.2442 17.1266 16.6787 16.6922C17.1131 16.2577 17.4523 15.7375 17.6745 15.1647C17.9266 14.4939 18.0617 13.7866 18.0761 13.0689C18.1173 12.1469 18.1297 11.8546 18.1297 9.51344C18.1278 7.17319 18.1278 6.8761 18.0742 5.95898ZM9.4942 13.9103C7.04661 13.9103 5.06382 11.9275 5.06382 9.47989C5.06382 7.03231 7.04661 5.04952 9.4942 5.04952C10.6692 5.04952 11.7961 5.51629 12.6269 6.34715C13.4578 7.178 13.9246 8.30489 13.9246 9.47989C13.9246 10.6549 13.4578 11.7818 12.6269 12.6126C11.7961 13.4435 10.6692 13.9103 9.4942 13.9103ZM14.1009 5.91873C13.9652 5.91885 13.8308 5.89222 13.7054 5.84035C13.58 5.78847 13.4661 5.71238 13.3701 5.61643C13.2742 5.52047 13.1981 5.40653 13.1462 5.28114C13.0943 5.15574 13.0677 5.02135 13.0678 4.88564C13.0678 4.75004 13.0945 4.61577 13.1464 4.49048C13.1983 4.3652 13.2744 4.25137 13.3703 4.15548C13.4662 4.0596 13.58 3.98354 13.7053 3.93164C13.8305 3.87975 13.9648 3.85304 14.1004 3.85304C14.236 3.85304 14.3703 3.87975 14.4956 3.93164C14.6209 3.98354 14.7347 4.0596 14.8306 4.15548C14.9265 4.25137 15.0025 4.3652 15.0544 4.49048C15.1063 4.61577 15.133 4.75004 15.133 4.88564C15.133 5.45681 14.6711 5.91873 14.1009 5.91873Z" fill="#B2B2B2"/>
</svg>
