<svg width="18" height="18" viewBox="0 0 18 18" fill="none" xmlns="http://www.w3.org/2000/svg">
<path d="M3.52921 0.00448608C1.5903 0.00448608 0.00341797 1.59133 0.00341797 3.53027V14.4714C0.00341797 16.4103 1.59026 17.9966 3.52921 17.9966H14.4704C16.4093 17.9966 17.9956 16.4103 17.9956 14.4714V3.53027C17.9956 1.59137 16.4093 0.00448608 14.4704 0.00448608H3.52921ZM4.416 2.97355C5.34566 2.97355 5.9183 3.58386 5.93597 4.3861C5.93597 5.17063 5.34563 5.79809 4.39802 5.79809H4.38057C3.4686 5.79809 2.87916 5.17067 2.87916 4.3861C2.87916 3.58388 3.48644 2.97355 4.41598 2.97355H4.416ZM12.4274 6.72313C14.2154 6.72313 15.5557 7.89173 15.5557 10.403V15.0911H12.8385V10.7173C12.8385 9.61821 12.4453 8.86837 11.4619 8.86837C10.7113 8.86837 10.2638 9.37377 10.0674 9.86201C9.99561 10.0367 9.97797 10.2806 9.97797 10.525V15.0911H7.26081C7.26081 15.0911 7.29647 7.68203 7.26081 6.91487H9.97853V8.0727C10.3396 7.5156 10.9855 6.72311 12.4274 6.72311V6.72313ZM3.03943 6.91546H5.75659V15.0911H3.03943V6.91546Z" fill="#B2B2B2"/>
</svg>
