<svg width="62" height="60" viewBox="0 0 62 60" fill="none" xmlns="http://www.w3.org/2000/svg">
<path d="M62 7.84678C62 5.76569 61.1835 3.76983 59.7301 2.29827C58.2767 0.826712 56.3054 0 54.25 0L7.75 0C5.69457 0 3.72333 0.826712 2.26992 2.29827C0.816516 3.76983 0 5.76569 0 7.84678L0 39.2339C0 41.315 0.816516 43.3109 2.26992 44.7824C3.72333 46.254 5.69457 47.0807 7.75 47.0807H44.8958C45.9234 47.0809 46.9088 47.4944 47.6354 48.2302L58.6908 59.4237C58.9615 59.6985 59.3067 59.8858 59.6826 59.9619C60.0585 60.038 60.4483 59.9995 60.8026 59.8512C61.1569 59.7029 61.4598 59.4516 61.673 59.1289C61.8861 58.8063 61.9999 58.4269 62 58.0387V7.84678ZM19.375 23.5403C19.375 24.5809 18.9667 25.5788 18.24 26.3146C17.5133 27.0504 16.5277 27.4637 15.5 27.4637C14.4723 27.4637 13.4867 27.0504 12.76 26.3146C12.0333 25.5788 11.625 24.5809 11.625 23.5403C11.625 22.4998 12.0333 21.5019 12.76 20.7661C13.4867 20.0303 14.4723 19.617 15.5 19.617C16.5277 19.617 17.5133 20.0303 18.24 20.7661C18.9667 21.5019 19.375 22.4998 19.375 23.5403ZM34.875 23.5403C34.875 24.5809 34.4667 25.5788 33.74 26.3146C33.0133 27.0504 32.0277 27.4637 31 27.4637C29.9723 27.4637 28.9867 27.0504 28.26 26.3146C27.5333 25.5788 27.125 24.5809 27.125 23.5403C27.125 22.4998 27.5333 21.5019 28.26 20.7661C28.9867 20.0303 29.9723 19.617 31 19.617C32.0277 19.617 33.0133 20.0303 33.74 20.7661C34.4667 21.5019 34.875 22.4998 34.875 23.5403ZM46.5 27.4637C45.4723 27.4637 44.4867 27.0504 43.76 26.3146C43.0333 25.5788 42.625 24.5809 42.625 23.5403C42.625 22.4998 43.0333 21.5019 43.76 20.7661C44.4867 20.0303 45.4723 19.617 46.5 19.617C47.5277 19.617 48.5133 20.0303 49.24 20.7661C49.9667 21.5019 50.375 22.4998 50.375 23.5403C50.375 24.5809 49.9667 25.5788 49.24 26.3146C48.5133 27.0504 47.5277 27.4637 46.5 27.4637Z" fill="#FD6500"/>
</svg>
