<svg width="56" height="56" viewBox="0 0 56 56" fill="none" xmlns="http://www.w3.org/2000/svg">
<path d="M40.25 8.75H47.25V15.75H40.25V8.75ZM40.25 19.25H47.25V26.25H40.25V19.25ZM29.75 8.75H36.75V15.75H29.75V8.75ZM29.75 19.25H36.75V26.25H29.75V19.25Z" fill="#FD6500"/>
<path d="M25.375 42C26.8247 42 28 40.8247 28 39.375C28 37.9253 26.8247 36.75 25.375 36.75C23.9253 36.75 22.75 37.9253 22.75 39.375C22.75 40.8247 23.9253 42 25.375 42Z" fill="#FD6500"/>
<path d="M36.75 49H14C13.072 48.9991 12.1823 48.63 11.5261 47.9739C10.87 47.3177 10.5009 46.428 10.5 45.5V3.5C10.5009 2.57203 10.87 1.68233 11.5261 1.02615C12.1823 0.369973 13.072 0.000926584 14 0H36.75V3.5H14V45.5H36.75V31.5H40.25V45.5C40.2491 46.428 39.88 47.3177 39.2239 47.9739C38.5677 48.63 37.678 48.9991 36.75 49Z" fill="#FD6500"/>
</svg>
