<svg width="44" height="44" viewBox="0 0 44 44" fill="none" xmlns="http://www.w3.org/2000/svg">
<path d="M11 13.75H22V16.5H11V13.75ZM11 8.25H27.5V11H11V8.25ZM11 2.75H27.5V5.5H11V2.75Z" fill="#FD6500"/>
<path d="M6.47762 38.5L14.2203 24.7555L24.442 33.6792C24.751 33.9542 25.118 34.1559 25.5158 34.2694C25.9135 34.3828 26.3317 34.4051 26.7393 34.3345C27.1468 34.264 27.5332 34.1024 27.8697 33.8618C28.2061 33.6212 28.4839 33.3078 28.6825 32.945L38.2663 18.6409L35.9824 17.1091L26.3574 31.4751L26.2611 31.6167L16.038 22.693C15.7291 22.4196 15.3627 22.2191 14.966 22.1063C14.5692 21.9935 14.1522 21.9712 13.7456 22.0412C13.3391 22.1111 12.9535 22.2715 12.6173 22.5104C12.281 22.7494 12.0027 23.0608 11.803 23.4218L5.5 34.6266V2.75H2.75V38.5C2.75073 39.2291 3.04069 39.9282 3.55626 40.4437C4.07183 40.9593 4.77088 41.2493 5.5 41.25H41.25V38.5H6.47762Z" fill="#FD6500"/>
</svg>
