<svg width="53" height="53" viewBox="0 0 53 53" fill="none" xmlns="http://www.w3.org/2000/svg">
<path opacity="0.2" d="M19.875 38.9219C19.875 40.0684 19.535 41.1892 18.8981 42.1424C18.2611 43.0957 17.3557 43.8387 16.2965 44.2775C15.2373 44.7162 14.0717 44.831 12.9472 44.6074C11.8227 44.3837 10.7898 43.8316 9.97912 43.0209C9.16841 42.2102 8.61631 41.1773 8.39264 40.0528C8.16896 38.9283 8.28376 37.7627 8.72251 36.7035C9.16127 35.6443 9.90427 34.7389 10.8576 34.102C11.8108 33.465 12.9316 33.125 14.0781 33.125C15.6156 33.125 17.09 33.7357 18.1771 34.8229C19.2643 35.91 19.875 37.3844 19.875 38.9219Z" fill="#FD6500"/>
<path d="M14.0782 31.4688C12.6041 31.4688 11.1631 31.9059 9.93743 32.7248C8.71177 33.5438 7.75648 34.7078 7.19237 36.0697C6.62827 37.4316 6.48067 38.9301 6.76825 40.3759C7.05583 41.8217 7.76567 43.1497 8.80801 44.192C9.85035 45.2344 11.1784 45.9442 12.6241 46.2318C14.0699 46.5194 15.5685 46.3718 16.9303 45.8077C18.2922 45.2436 19.4562 44.2883 20.2752 43.0626C21.0942 41.837 21.5313 40.396 21.5313 38.9219C21.5313 36.9452 20.746 35.0495 19.3483 33.6517C17.9506 32.254 16.0549 31.4688 14.0782 31.4688ZM14.0782 43.0625C13.2592 43.0625 12.4587 42.8197 11.7778 42.3647C11.0968 41.9097 10.5661 41.263 10.2527 40.5064C9.93933 39.7498 9.85733 38.9173 10.0171 38.1141C10.1769 37.3109 10.5712 36.5731 11.1503 35.994C11.7294 35.4149 12.4672 35.0206 13.2704 34.8608C14.0736 34.701 14.9061 34.783 15.6627 35.0964C16.4193 35.4098 17.066 35.9405 17.521 36.6215C17.9759 37.3024 18.2188 38.1029 18.2188 38.9219C18.2133 40.0184 17.7754 41.0684 17 41.8437C16.2247 42.6191 15.1746 43.0571 14.0782 43.0625ZM7.10121 22.0074L10.0825 19.0469L7.10121 16.0863C6.8371 15.7645 6.70213 15.356 6.72255 14.9402C6.74297 14.5244 6.91733 14.131 7.2117 13.8367C7.50607 13.5423 7.89942 13.3679 8.31522 13.3475C8.73103 13.3271 9.13956 13.4621 9.46137 13.7262L12.4219 16.7074L15.3825 13.7262C15.7043 13.4621 16.1128 13.3271 16.5286 13.3475C16.9444 13.3679 17.3378 13.5423 17.6321 13.8367C17.9265 14.131 18.1009 14.5244 18.1213 14.9402C18.1417 15.356 18.0067 15.7645 17.7426 16.0863L14.7614 19.0469L17.7426 22.0074C18.0536 22.3214 18.2281 22.7455 18.2281 23.1875C18.2281 23.6295 18.0536 24.0536 17.7426 24.3676C17.426 24.6737 17.0029 24.8448 16.5625 24.8448C16.1222 24.8448 15.699 24.6737 15.3825 24.3676L12.4219 21.3863L9.46137 24.3676C9.14479 24.6737 8.72166 24.8448 8.28129 24.8448C7.84092 24.8448 7.41779 24.6737 7.10121 24.3676C6.7902 24.0536 6.61572 23.6295 6.61572 23.1875C6.61572 22.7455 6.7902 22.3214 7.10121 22.0074ZM45.8989 41.8824C46.2099 42.1964 46.3843 42.6205 46.3843 43.0625C46.3843 43.5045 46.2099 43.9286 45.8989 44.2426C45.5823 44.5487 45.1591 44.7198 44.7188 44.7198C44.2784 44.7198 43.8553 44.5487 43.5387 44.2426L40.5782 41.2613L37.6176 44.2426C37.301 44.5487 36.8779 44.7198 36.4375 44.7198C35.9972 44.7198 35.574 44.5487 35.2575 44.2426C34.9464 43.9286 34.772 43.5045 34.772 43.0625C34.772 42.6205 34.9464 42.1964 35.2575 41.8824L38.2387 38.9219L35.2575 35.9613C34.9933 35.6395 34.8584 35.231 34.8788 34.8152C34.8992 34.3994 35.0736 34.006 35.3679 33.7117C35.6623 33.4173 36.0557 33.2429 36.4715 33.2225C36.8873 33.2021 37.2958 33.3371 37.6176 33.6012L40.5782 36.5824L43.5387 33.6012C43.8605 33.3371 44.269 33.2021 44.6848 33.2225C45.1007 33.2429 45.494 33.4173 45.7884 33.7117C46.0827 34.006 46.2571 34.3994 46.2775 34.8152C46.2979 35.231 46.163 35.6395 45.8989 35.9613L42.9176 38.9219L45.8989 41.8824ZM36.541 23.3531C35.2575 27.9906 31.3032 31.9863 26.8934 33.0836L26.5 33.125C26.1282 33.1263 25.7667 33.0025 25.4737 32.7734C25.1808 32.5443 24.9735 32.2233 24.8852 31.8621C24.7849 31.4341 24.8568 30.9838 25.0852 30.6082C25.3137 30.2326 25.6805 29.9617 26.1067 29.8539C29.3364 29.0465 32.3797 25.941 33.3528 22.4836C33.9946 20.1027 34.0153 16.4797 30.2887 12.7738L29.8125 12.277V16.5625C29.8125 17.0018 29.638 17.423 29.3274 17.7336C29.0168 18.0443 28.5955 18.2188 28.1563 18.2188C27.717 18.2188 27.2957 18.0443 26.9851 17.7336C26.6745 17.423 26.5 17.0018 26.5 16.5625V8.28125C26.5 7.84199 26.6745 7.42071 26.9851 7.1101C27.2957 6.7995 27.717 6.625 28.1563 6.625H36.4375C36.8768 6.625 37.2981 6.7995 37.6087 7.1101C37.9193 7.42071 38.0938 7.84199 38.0938 8.28125C38.0938 8.72052 37.9193 9.14179 37.6087 9.4524C37.2981 9.763 36.8768 9.9375 36.4375 9.9375H32.152L32.6489 10.4137C36.4168 14.2023 37.8039 18.7984 36.541 23.3531Z" fill="#FD6500"/>
</svg>
