<svg width="42" height="42" viewBox="0 0 42 42" fill="none" xmlns="http://www.w3.org/2000/svg">
<path d="M19.6875 9.18752C18.2175 9.18752 16.8446 9.58914 15.6712 10.29C15.5448 8.9439 15.1139 7.64415 14.4112 6.48902C16.1131 5.63908 17.995 5.21272 19.8969 5.24618C21.7989 5.27964 23.6646 5.77194 25.3355 6.68121C27.0063 7.59048 28.4329 8.88982 29.4938 10.4687C30.5548 12.0477 31.2187 13.8594 31.4291 15.75H34.7839C37.3196 15.75 39.3776 17.808 39.3776 20.3438V32.1563C39.3776 32.7597 39.2587 33.3573 39.0277 33.9148C38.7967 34.4723 38.4581 34.9789 38.0312 35.4055C37.6044 35.8321 37.0976 36.1704 36.54 36.4011C35.9824 36.6318 35.3847 36.7504 34.7812 36.75H22.9688C21.7504 36.75 20.582 36.266 19.7205 35.4045C18.859 34.543 18.375 33.3746 18.375 32.1563V28.8041C17.465 28.7032 16.5699 28.4961 15.708 28.1873C15.7343 27.5678 15.75 26.922 15.75 26.25V26.04C15.75 25.41 15.75 24.6671 15.7237 23.8691C16.5418 24.3483 17.4402 24.6747 18.375 24.8325V20.3438C18.375 17.808 20.433 15.75 22.9688 15.75H27.4549C27.1446 13.9146 26.1943 12.2484 24.7723 11.0471C23.3504 9.84573 21.549 9.18692 19.6875 9.18752ZM31.2086 19.6875C30.7126 21.857 29.6147 23.8425 28.0411 25.4161C26.4675 26.9897 24.4819 28.0876 22.3125 28.5836V32.1563C22.3125 32.5185 22.6065 32.8125 22.9688 32.8125H34.7812C34.9553 32.8125 35.1222 32.7434 35.2453 32.6203C35.3684 32.4972 35.4375 32.3303 35.4375 32.1563V20.3438C35.4375 20.1697 35.3684 20.0028 35.2453 19.8797C35.1222 19.7567 34.9553 19.6875 34.7812 19.6875H31.2086ZM27.1136 19.6875H22.9688C22.7947 19.6875 22.6278 19.7567 22.5047 19.8797C22.3816 20.0028 22.3125 20.1697 22.3125 20.3438V24.4913C23.4202 24.0985 24.4263 23.4635 25.2574 22.6324C26.0885 21.8014 26.7235 20.7953 27.1162 19.6875H27.1136ZM9.40013 2.95314C9.61801 3.14372 9.76678 3.40099 9.82327 3.68489C9.87977 3.9688 9.84083 4.26342 9.7125 4.52289C9.69028 4.59969 9.67879 4.67919 9.67838 4.75914C9.67838 4.92452 9.72038 5.23952 10.1168 5.63327C10.3084 5.82489 10.4554 5.96139 10.6155 6.11102C10.7468 6.23177 10.8859 6.35777 11.0618 6.53102C11.403 6.85652 11.7626 7.23977 12.0855 7.72014C12.7549 8.72552 13.125 9.98289 13.125 11.8125C13.125 13.9965 12.3375 15.8629 11.0985 17.0415C11.865 17.8185 12.3112 18.8344 12.5869 19.8503C13.125 21.8243 13.125 24.2655 13.125 26.1529V26.25C13.125 31.6523 12.1144 34.86 10.9699 36.7684C10.5375 37.5198 9.96968 38.1847 9.29512 38.7293C9.02797 38.9376 8.73722 39.1139 8.42887 39.2543C8.42887 39.2543 8.0955 39.375 7.875 39.375C7.68577 39.36 7.49944 39.3194 7.32113 39.2543C7.01278 39.1139 6.72203 38.9376 6.45488 38.7293C5.78032 38.1847 5.21249 37.5198 4.78012 36.7684C3.63563 34.8626 2.625 31.6523 2.625 26.25V26.1555C2.625 24.2655 2.625 21.8269 3.16313 19.8476C3.43875 18.8344 3.885 17.8185 4.6515 17.0389C3.4125 15.8655 2.625 13.9965 2.625 11.8125C2.625 10.9568 2.85338 9.93564 3.16838 8.99327C3.48338 8.04827 3.92438 7.07177 4.43362 6.28427C5.04 5.26052 5.89312 4.40214 6.55463 3.82464C6.91729 3.50569 7.29577 3.20519 7.68862 2.92427L7.76738 2.87177L7.791 2.85339L7.79887 2.84814L7.80413 2.84552C8.04483 2.68507 8.33179 2.60863 8.62042 2.6281C8.90904 2.64756 9.18314 2.76183 9.40013 2.95314Z" fill="#FD6500"/>
</svg>
