<svg width="51" height="50" viewBox="0 0 51 50" fill="none" xmlns="http://www.w3.org/2000/svg">
<path d="M14.875 25.5208C14.875 25.1064 15.0429 24.709 15.3418 24.4159C15.6407 24.1229 16.0461 23.9583 16.4687 23.9583C16.8914 23.9583 17.2968 24.1229 17.5957 24.4159C17.8946 24.709 18.0625 25.1064 18.0625 25.5208C18.0625 25.9352 17.8946 26.3326 17.5957 26.6256C17.2968 26.9187 16.8914 27.0833 16.4687 27.0833C16.0461 27.0833 15.6407 26.9187 15.3418 26.6256C15.0429 26.3326 14.875 25.9352 14.875 25.5208ZM16.4687 30.2083C16.0461 30.2083 15.6407 30.3729 15.3418 30.6659C15.0429 30.959 14.875 31.3564 14.875 31.7708C14.875 32.1852 15.0429 32.5826 15.3418 32.8756C15.6407 33.1687 16.0461 33.3333 16.4687 33.3333C16.8914 33.3333 17.2968 33.1687 17.5957 32.8756C17.8946 32.5826 18.0625 32.1852 18.0625 31.7708C18.0625 31.3564 17.8946 30.959 17.5957 30.6659C17.2968 30.3729 16.8914 30.2083 16.4687 30.2083ZM14.875 38.0208C14.875 37.6064 15.0429 37.209 15.3418 36.9159C15.6407 36.6229 16.0461 36.4583 16.4687 36.4583C16.8914 36.4583 17.2968 36.6229 17.5957 36.9159C17.8946 37.209 18.0625 37.6064 18.0625 38.0208C18.0625 38.4352 17.8946 38.8326 17.5957 39.1257C17.2968 39.4187 16.8914 39.5833 16.4687 39.5833C16.0461 39.5833 15.6407 39.4187 15.3418 39.1257C15.0429 38.8326 14.875 38.4352 14.875 38.0208ZM22.8437 23.9583C22.4211 23.9583 22.0157 24.1229 21.7168 24.4159C21.4179 24.709 21.25 25.1064 21.25 25.5208C21.25 25.9352 21.4179 26.3326 21.7168 26.6256C22.0157 26.9187 22.4211 27.0833 22.8437 27.0833H34.5312C34.9539 27.0833 35.3593 26.9187 35.6582 26.6256C35.9571 26.3326 36.125 25.9352 36.125 25.5208C36.125 25.1064 35.9571 24.709 35.6582 24.4159C35.3593 24.1229 34.9539 23.9583 34.5312 23.9583H22.8437ZM21.25 31.7708C21.25 31.3564 21.4179 30.959 21.7168 30.6659C22.0157 30.3729 22.4211 30.2083 22.8437 30.2083H34.5312C34.9539 30.2083 35.3593 30.3729 35.6582 30.6659C35.9571 30.959 36.125 31.3564 36.125 31.7708C36.125 32.1852 35.9571 32.5826 35.6582 32.8756C35.3593 33.1687 34.9539 33.3333 34.5312 33.3333H22.8437C22.4211 33.3333 22.0157 33.1687 21.7168 32.8756C21.4179 32.5826 21.25 32.1852 21.25 31.7708ZM22.8437 36.4583C22.4211 36.4583 22.0157 36.6229 21.7168 36.9159C21.4179 37.209 21.25 37.6064 21.25 38.0208C21.25 38.4352 21.4179 38.8326 21.7168 39.1257C22.0157 39.4187 22.4211 39.5833 22.8437 39.5833H34.5312C34.9539 39.5833 35.3593 39.4187 35.6582 39.1257C35.9571 38.8326 36.125 38.4352 36.125 38.0208C36.125 37.6064 35.9571 37.209 35.6582 36.9159C35.3593 36.6229 34.9539 36.4583 34.5312 36.4583H22.8437ZM41.2547 17.5291L28.8681 5.38746C28.8353 5.35752 28.8005 5.32969 28.764 5.30413C28.7377 5.28424 28.7122 5.26339 28.6875 5.24163C28.5413 5.10636 28.3858 4.98106 28.2221 4.86663C28.1677 4.83221 28.1109 4.80158 28.0521 4.77496L27.9501 4.72496L27.8439 4.66454C27.7291 4.59996 27.6122 4.53329 27.4911 4.48329C27.068 4.31759 26.6201 4.22049 26.1651 4.19579C26.1231 4.19311 26.0812 4.18824 26.0397 4.18121C25.9821 4.17248 25.9239 4.1676 25.8655 4.16663H12.75C11.6228 4.16663 10.5418 4.60561 9.7448 5.38701C8.94777 6.16842 8.5 7.22822 8.5 8.33329V41.6666C8.5 42.7717 8.94777 43.8315 9.7448 44.6129C10.5418 45.3943 11.6228 45.8333 12.75 45.8333H38.25C39.3772 45.8333 40.4582 45.3943 41.2552 44.6129C42.0522 43.8315 42.5 42.7717 42.5 41.6666V20.475C42.4998 19.37 42.0518 18.3103 41.2547 17.5291ZM39.3125 41.6666C39.3125 41.9429 39.2006 42.2078 39.0013 42.4032C38.802 42.5985 38.5318 42.7083 38.25 42.7083H12.75C12.4682 42.7083 12.198 42.5985 11.9987 42.4032C11.7994 42.2078 11.6875 41.9429 11.6875 41.6666V8.33329C11.6875 8.05703 11.7994 7.79207 11.9987 7.59672C12.198 7.40137 12.4682 7.29163 12.75 7.29163H25.5V16.6666C25.5 17.7717 25.9478 18.8315 26.7448 19.6129C27.5418 20.3943 28.6228 20.8333 29.75 20.8333H39.3125V41.6666ZM28.6875 9.62704L36.9282 17.7083H29.75C29.4682 17.7083 29.198 17.5985 28.9987 17.4032C28.7994 17.2078 28.6875 16.9429 28.6875 16.6666V9.62704Z" fill="#FD6500"/>
</svg>
