<svg width="21" height="17" viewBox="0 0 21 17" fill="none" xmlns="http://www.w3.org/2000/svg">
<path d="M20.6876 2.31988C19.9569 2.64363 19.1721 2.86238 18.347 2.96126C19.1983 2.45182 19.8353 1.65004 20.139 0.705506C19.3391 1.18062 18.4636 1.51505 17.5507 1.69426C16.9368 1.03876 16.1236 0.604292 15.2375 0.458296C14.3513 0.3123 13.4418 0.462949 12.65 0.886852C11.8583 1.31076 11.2286 1.9842 10.8588 2.80262C10.489 3.62105 10.3998 4.53866 10.6049 5.41301C8.98418 5.33163 7.39862 4.91036 5.9512 4.17655C4.50377 3.44273 3.22681 2.41277 2.2032 1.15351C1.8532 1.75726 1.65195 2.45726 1.65195 3.20276C1.65156 3.87388 1.81683 4.53472 2.13309 5.12665C2.44936 5.71858 2.90684 6.22329 3.46495 6.59601C2.81769 6.57541 2.18471 6.40052 1.6187 6.08588V6.13838C1.61863 7.07965 1.94423 7.99196 2.54023 8.7205C3.13624 9.44904 3.96595 9.94894 4.88857 10.1354C4.28814 10.2979 3.65862 10.3218 3.04757 10.2054C3.30788 11.0153 3.81495 11.7235 4.49777 12.2309C5.1806 12.7384 6.005 13.0195 6.85557 13.0351C5.41168 14.1686 3.62848 14.7835 1.79282 14.7808C1.46766 14.7808 1.14277 14.7619 0.819824 14.7239C2.68312 15.9219 4.85212 16.5577 7.06732 16.5553C14.5661 16.5553 18.6655 10.3445 18.6655 4.95801C18.6655 4.78301 18.6611 4.60626 18.6532 4.43126C19.4506 3.85461 20.1389 3.14054 20.6858 2.32251L20.6876 2.31988Z" fill="#B2B2B2"/>
</svg>
