<svg width="21" height="15" viewBox="0 0 21 15" fill="none" xmlns="http://www.w3.org/2000/svg">
<path fill-rule="evenodd" clip-rule="evenodd" d="M8.33175 10.2673V4.27414L14.0049 7.28139L8.33175 10.2673ZM20.79 3.23653C20.79 3.23653 20.5852 1.76596 19.9552 1.11865C19.1572 0.269799 18.2616 0.265534 17.851 0.215413C14.9131 1.43016e-07 10.5042 0 10.5042 0H10.4958C10.4958 0 6.0879 1.43016e-07 3.14895 0.215413C2.7384 0.265534 1.8438 0.268733 1.04475 1.11865C0.41475 1.76596 0.21 3.23653 0.21 3.23653C0.21 3.23653 0 4.96197 0 6.68847V8.3062C0 10.0316 0.21 11.7581 0.21 11.7581C0.21 11.7581 0.41475 13.2276 1.04475 13.8749C1.84275 14.7249 2.89275 14.6971 3.36 14.7867C5.04 14.9499 10.5 15 10.5 15C10.5 15 14.9131 14.9936 17.851 14.7782C18.2616 14.7281 19.1572 14.7249 19.9552 13.8749C20.5852 13.2276 20.79 11.7581 20.79 11.7581C20.79 11.7581 21 10.0316 21 8.3062V6.68847C21 4.96197 20.79 3.23653 20.79 3.23653Z" fill="#B2B2B2"/>
</svg>
